<svg xmlns="http://www.w3.org/2000/svg" xmlns:xlink="http://www.w3.org/1999/xlink"
    xmlns:serif="http://www.serif.com/" width="100%" height="100%" viewBox="0 0 345 85"
    version="1.1" xml:space="preserve"
    style="fill-rule:evenodd;clip-rule:evenodd;stroke-linejoin:round;stroke-miterlimit:2;">
    <path id="Gray-Arc" d="M140.033,26.33C202.915,-3.146 270.257,5.331 321.194,45.441L344.389,45.054C264.559,-17.883 198.877,-3.543 140.033,26.33Z" style="fill:black;"/>
    <g id="Red-Arc" transform="matrix(0.995841,0,0,0.807791,-12.4929,16.4223)">
        <path d="M153.116,12.3C225.862,-26.899 283.064,-2.274 320.69,44.676L344.068,44.817C306.428,2.512 234.764,-34.932 153.116,12.3Z" style="fill:rgb(255,112,129);"/>
    </g>
    <g transform="matrix(1,0,0,1,272.932,66.0755)">
        <path d="M19.252,5.822L19.252,-2.03L21.374,-2.03L21.374,4.109L24.398,4.109L24.398,5.822L19.252,5.822Z" style="fill:rgb(255,112,129);fill-rule:nonzero;"/>
        <path d="M25.083,5.822L25.083,-2.03L27.204,-2.03L27.204,4.109L30.228,4.109L30.228,5.822L25.083,5.822Z" style="fill:rgb(255,112,129);fill-rule:nonzero;"/>
        <path d="M34.189,-0.403C33.685,-0.403 33.291,-0.196 33.008,0.217C32.725,0.631 32.583,1.201 32.583,1.928C32.583,3.439 33.158,4.195 34.308,4.195C34.655,4.195 34.992,4.146 35.317,4.05C35.643,3.953 35.971,3.837 36.3,3.7L36.3,5.494C35.645,5.784 34.904,5.929 34.077,5.929C32.891,5.929 31.983,5.586 31.351,4.898C30.719,4.211 30.403,3.217 30.403,1.917C30.403,1.104 30.556,0.39 30.862,-0.226C31.168,-0.842 31.609,-1.315 32.183,-1.646C32.758,-1.978 33.434,-2.143 34.211,-2.143C35.06,-2.143 35.871,-1.959 36.644,-1.59L35.994,0.08C35.704,-0.056 35.414,-0.17 35.124,-0.263C34.834,-0.356 34.522,-0.403 34.189,-0.403Z" style="fill:rgb(255,112,129);fill-rule:nonzero;"/>
    </g>
    <g transform="matrix(1,0,0,1,138.818,66.1384)">
        <path d="M46.534,-21.144C46.534,-17.486 45.292,-14.683 42.808,-12.733C40.323,-10.784 36.804,-9.809 32.249,-9.809L26.4,-9.809L26.4,5.822L23.761,5.822L23.761,-32.013L33.025,-32.013C42.031,-32.013 46.534,-28.39 46.534,-21.144ZM26.4,-12.086L31.602,-12.086C35.863,-12.086 38.943,-12.789 40.841,-14.195C42.739,-15.601 43.687,-17.883 43.687,-21.04C43.687,-23.956 42.79,-26.117 40.996,-27.523C39.202,-28.929 36.424,-29.632 32.663,-29.632L26.4,-29.632L26.4,-12.086Z" style="fill:rgb(255,112,129);fill-rule:nonzero;"/>
        <path d="M70.977,5.822L70.977,-12.423C70.977,-15.252 70.382,-17.309 69.191,-18.595C68.001,-19.88 66.155,-20.523 63.653,-20.523C60.289,-20.523 57.826,-19.673 56.265,-17.974C54.703,-16.274 53.923,-13.518 53.923,-9.705L53.923,5.822L51.361,5.822L51.361,-34.446L53.923,-34.446L53.923,-21.635L53.793,-18.038L53.974,-18.038C55.027,-19.729 56.355,-20.954 57.96,-21.713C59.564,-22.472 61.557,-22.852 63.938,-22.852C70.321,-22.852 73.513,-19.427 73.513,-12.578L73.513,5.822L70.977,5.822Z" style="fill:rgb(255,112,129);fill-rule:nonzero;"/>
        <path d="M96.946,5.822L96.299,1.371L96.092,1.371C94.678,3.182 93.224,4.463 91.732,5.214C90.24,5.964 88.475,6.34 86.44,6.34C83.679,6.34 81.531,5.632 79.996,4.218C78.46,2.803 77.693,0.845 77.693,-1.657C77.693,-4.4 78.836,-6.531 81.122,-8.049C83.407,-9.567 86.716,-10.37 91.046,-10.456L96.403,-10.611L96.403,-12.474C96.403,-15.148 95.86,-17.167 94.773,-18.53C93.686,-19.893 91.935,-20.574 89.519,-20.574C86.914,-20.574 84.214,-19.85 81.419,-18.401L80.462,-20.626C83.55,-22.075 86.604,-22.8 89.623,-22.8C92.711,-22.8 95.018,-21.998 96.545,-20.393C98.072,-18.789 98.836,-16.287 98.836,-12.888L98.836,5.822L96.946,5.822ZM86.595,4.011C89.597,4.011 91.965,3.152 93.699,1.436C95.433,-0.281 96.299,-2.666 96.299,-5.72L96.299,-8.489L91.382,-8.282C87.432,-8.092 84.615,-7.475 82.933,-6.432C81.251,-5.388 80.41,-3.762 80.41,-1.553C80.41,0.206 80.949,1.574 82.027,2.548C83.106,3.523 84.628,4.011 86.595,4.011Z" style="fill:rgb(255,112,129);fill-rule:nonzero;"/>
        <path d="M122.631,-1.502C122.631,1.017 121.674,2.954 119.759,4.308C117.844,5.662 115.126,6.34 111.607,6.34C107.846,6.34 104.861,5.762 102.653,4.606L102.653,1.837C105.482,3.251 108.467,3.959 111.607,3.959C114.385,3.959 116.494,3.497 117.934,2.574C119.375,1.651 120.095,0.422 120.095,-1.113C120.095,-2.528 119.522,-3.719 118.374,-4.685C117.227,-5.651 115.342,-6.6 112.72,-7.531C109.908,-8.549 107.932,-9.425 106.793,-10.158C105.655,-10.891 104.796,-11.72 104.219,-12.643C103.641,-13.566 103.352,-14.691 103.352,-16.02C103.352,-18.125 104.236,-19.789 106.004,-21.014C107.773,-22.239 110.244,-22.852 113.418,-22.852C116.455,-22.852 119.336,-22.282 122.062,-21.144L121.105,-18.815C118.344,-19.953 115.782,-20.523 113.418,-20.523C111.124,-20.523 109.304,-20.143 107.958,-19.384C106.612,-18.625 105.939,-17.572 105.939,-16.227C105.939,-14.76 106.461,-13.587 107.505,-12.707C108.549,-11.827 110.589,-10.844 113.626,-9.757C116.162,-8.843 118.008,-8.019 119.164,-7.286C120.32,-6.552 121.186,-5.72 121.764,-4.788C122.342,-3.857 122.631,-2.761 122.631,-1.502Z" style="fill:rgb(255,112,129);fill-rule:nonzero;"/>
        <path d="M138.482,6.34C134.393,6.34 131.206,5.08 128.92,2.561C126.634,0.042 125.491,-3.486 125.491,-8.023C125.491,-12.509 126.595,-16.102 128.804,-18.802C131.012,-21.502 133.988,-22.852 137.732,-22.852C141.044,-22.852 143.658,-21.696 145.573,-19.384C147.488,-17.072 148.446,-13.932 148.446,-9.964L148.446,-7.894L128.183,-7.894C128.217,-4.029 129.118,-1.079 130.887,0.957C132.655,2.993 135.187,4.011 138.482,4.011C140.087,4.011 141.497,3.898 142.714,3.674C143.93,3.45 145.47,2.967 147.333,2.225L147.333,4.554C145.746,5.244 144.279,5.714 142.933,5.964C141.588,6.215 140.104,6.34 138.482,6.34ZM137.732,-20.574C135.023,-20.574 132.849,-19.682 131.21,-17.896C129.571,-16.11 128.614,-13.535 128.338,-10.171L145.728,-10.171C145.728,-13.432 145.021,-15.981 143.606,-17.818C142.192,-19.656 140.233,-20.574 137.732,-20.574Z" style="fill:rgb(255,112,129);fill-rule:nonzero;"/>
    </g>
    <g transform="matrix(1,0,0,1,-21.7966,66.0342)">
        <path d="M22.493,-32.013L35.691,-32.013C40.832,-32.013 44.649,-31.249 47.142,-29.723C49.635,-28.196 50.882,-25.819 50.882,-22.593C50.882,-20.471 50.338,-18.659 49.251,-17.158C48.165,-15.657 46.733,-14.691 44.956,-14.26L44.956,-14.001C47.302,-13.38 49.001,-12.345 50.054,-10.896C51.106,-9.446 51.632,-7.566 51.632,-5.254C51.632,-1.821 50.343,0.884 47.763,2.859C45.184,4.834 41.669,5.822 37.218,5.822L22.493,5.822L22.493,-32.013ZM32.715,-17.495L35.794,-17.495C37.261,-17.495 38.395,-17.797 39.197,-18.401C40,-19.004 40.401,-19.902 40.401,-21.092C40.401,-23.214 38.796,-24.275 35.587,-24.275L32.715,-24.275L32.715,-17.495ZM32.715,-10.016L32.715,-2.071L36.312,-2.071C39.504,-2.071 41.1,-3.417 41.1,-6.108C41.1,-7.368 40.673,-8.334 39.819,-9.007C38.965,-9.679 37.727,-10.016 36.105,-10.016L32.715,-10.016Z" style="fill:black;fill-rule:nonzero;"/>
        <path d="M72.555,-24.016C73.435,-24.016 74.272,-23.947 75.066,-23.809L75.635,-23.706L74.729,-14.156C73.901,-14.363 72.754,-14.467 71.287,-14.467C69.079,-14.467 67.475,-13.962 66.474,-12.953C65.473,-11.944 64.973,-10.49 64.973,-8.592L64.973,5.822L54.854,5.822L54.854,-23.499L62.385,-23.499L63.964,-18.815L64.455,-18.815C65.301,-20.367 66.478,-21.623 67.988,-22.58C69.497,-23.538 71.02,-24.016 72.555,-24.016Z" style="fill:black;fill-rule:nonzero;"/>
        <path d="M87.138,5.822L77.02,5.822L77.02,-23.499L87.138,-23.499L87.138,5.822ZM76.761,-30.797C76.761,-32.315 77.184,-33.445 78.029,-34.187C78.874,-34.929 80.237,-35.3 82.118,-35.3C83.998,-35.3 85.37,-34.92 86.233,-34.161C87.095,-33.402 87.527,-32.28 87.527,-30.797C87.527,-27.829 85.724,-26.345 82.118,-26.345C78.547,-26.345 76.761,-27.829 76.761,-30.797Z" style="fill:black;fill-rule:nonzero;"/>
        <path d="M100.557,6.34C98.469,6.34 96.645,5.744 95.083,4.554C93.522,3.364 92.314,1.612 91.46,-0.699C90.606,-3.011 90.179,-5.711 90.179,-8.8C90.179,-13.561 91.137,-17.288 93.052,-19.979C94.967,-22.671 97.598,-24.016 100.945,-24.016C102.584,-24.016 104.02,-23.689 105.254,-23.033C106.487,-22.377 107.613,-21.273 108.631,-19.72L108.838,-19.72C108.51,-22.015 108.346,-24.31 108.346,-26.604L108.346,-34.446L118.543,-34.446L118.543,5.822L110.908,5.822L108.734,2.121L108.346,2.121C106.604,4.934 104.007,6.34 100.557,6.34ZM104.697,-1.657C106.319,-1.657 107.462,-2.166 108.126,-3.184C108.79,-4.202 109.148,-5.772 109.2,-7.894L109.2,-8.696C109.2,-11.284 108.829,-13.126 108.087,-14.221C107.346,-15.317 106.181,-15.864 104.594,-15.864C103.265,-15.864 102.234,-15.239 101.501,-13.988C100.768,-12.737 100.401,-10.956 100.401,-8.644C100.401,-6.367 100.772,-4.633 101.514,-3.443C102.256,-2.252 103.317,-1.657 104.697,-1.657Z" style="fill:black;fill-rule:nonzero;"/>
        <path d="M150.438,-23.499L150.438,-18.608L146.427,-17.133C146.979,-16.132 147.255,-14.967 147.255,-13.639C147.255,-10.482 146.147,-8.032 143.93,-6.289C141.713,-4.547 138.405,-3.675 134.005,-3.675C132.918,-3.675 132.056,-3.745 131.417,-3.883C131.176,-3.434 131.055,-3.011 131.055,-2.614C131.055,-2.114 131.46,-1.73 132.271,-1.463C133.082,-1.195 134.143,-1.062 135.454,-1.062L140.32,-1.062C146.893,-1.062 150.18,1.707 150.18,7.245C150.18,10.817 148.657,13.594 145.612,15.578C142.567,17.562 138.293,18.554 132.789,18.554C128.631,18.554 125.426,17.86 123.175,16.471C120.923,15.082 119.798,13.085 119.798,10.48C119.798,6.978 121.972,4.718 126.319,3.7C125.422,3.32 124.641,2.708 123.977,1.863C123.313,1.017 122.981,0.18 122.981,-0.648C122.981,-1.562 123.231,-2.369 123.731,-3.067C124.232,-3.766 125.275,-4.599 126.863,-5.565C125.344,-6.238 124.15,-7.29 123.278,-8.722C122.407,-10.154 121.972,-11.896 121.972,-13.949C121.972,-17.141 123.058,-19.617 125.232,-21.377C127.406,-23.136 130.512,-24.016 134.549,-24.016C135.084,-24.016 136.007,-23.956 137.318,-23.835C138.629,-23.714 139.595,-23.602 140.216,-23.499L150.438,-23.499ZM128.338,9.471C128.338,10.299 128.786,10.968 129.683,11.477C130.581,11.986 131.78,12.24 133.281,12.24C135.731,12.24 137.693,11.934 139.168,11.321C140.643,10.709 141.381,9.92 141.381,8.953C141.381,8.177 140.932,7.629 140.035,7.31C139.138,6.991 137.853,6.831 136.179,6.831L132.22,6.831C131.133,6.831 130.214,7.086 129.464,7.595C128.713,8.104 128.338,8.729 128.338,9.471ZM131.521,-13.898C131.521,-10.896 132.565,-9.395 134.652,-9.395C135.618,-9.395 136.365,-9.766 136.891,-10.508C137.417,-11.249 137.68,-12.362 137.68,-13.846C137.68,-16.882 136.671,-18.401 134.652,-18.401C132.565,-18.401 131.521,-16.9 131.521,-13.898Z" style="fill:black;fill-rule:nonzero;"/>
        <path d="M166.289,6.34C161.407,6.34 157.616,5.041 154.916,2.445C152.215,-0.152 150.865,-3.848 150.865,-8.644C150.865,-13.596 152.116,-17.396 154.618,-20.044C157.12,-22.692 160.691,-24.016 165.332,-24.016C169.748,-24.016 173.16,-22.865 175.567,-20.561C177.974,-18.258 179.177,-14.941 179.177,-10.611L179.177,-6.108L161.088,-6.108C161.157,-4.469 161.756,-3.184 162.886,-2.252C164.016,-1.321 165.556,-0.855 167.506,-0.855C169.283,-0.855 170.917,-1.023 172.41,-1.359C173.902,-1.696 175.519,-2.269 177.262,-3.08L177.262,4.192C175.675,5.003 174.036,5.563 172.345,5.874C170.654,6.184 168.636,6.34 166.289,6.34ZM165.694,-17.133C164.504,-17.133 163.507,-16.757 162.705,-16.007C161.903,-15.256 161.433,-14.079 161.295,-12.474L169.99,-12.474C169.955,-13.889 169.554,-15.019 168.787,-15.864C168.019,-16.71 166.988,-17.133 165.694,-17.133Z" style="fill:black;fill-rule:nonzero;"/>
    </g>
</svg>
