<svg xmlns:inkscape="http://www.inkscape.org/namespaces/inkscape" xmlns:sodipodi="http://sodipodi.sourceforge.net/DTD/sodipodi-0.dtd" xmlns="http://www.w3.org/2000/svg" xmlns:svg="http://www.w3.org/2000/svg" version="1.1" id="svg2" xml:space="preserve" viewBox="0 0 576 384" sodipodi:docname="Army_National_Guard.ai"><defs id="defs6"><clipPath clipPathUnits="userSpaceOnUse" id="clipPath16"><path d="M 0,288 H 432 V 0 H 0 Z" id="path14"></path></clipPath></defs><sodipodi:namedview id="namedview4" pagecolor="#ffffff" bordercolor="#666666" borderopacity="1.0" inkscape:pageshadow="2" inkscape:pageopacity="0.0" inkscape:pagecheckerboard="0"></sodipodi:namedview><g id="g8" inkscape:groupmode="layer" inkscape:label="Army_National_Guard" transform="matrix(1.3333333,0,0,-1.3333333,0,384)"><g id="g10"><g id="g12" clip-path="url(#clipPath16)"><path d="m 312.225,235.934 v -48.065 h 10.274 v -12.037 h -27.221 v 60.102 z m -38.557,-38.658 c -0.827,6.817 -1.671,15.238 -2.522,25.26 -1.707,-11.508 -2.779,-19.928 -3.222,-25.26 z m 9.009,38.658 9.684,-60.102 h -17.312 l -0.903,10.805 h -6.057 l -0.98,-10.805 h -17.513 l 8.595,60.102 z m -36.038,0 v -60.102 h -14.812 l -8.806,27.322 v -27.322 h -14.158 v 60.102 h 14.158 l 9.473,-27.062 v 27.062 z m -61.06,-15.447 c 0,2.796 -0.166,4.583 -0.497,5.363 -0.332,0.778 -1.014,1.169 -2.048,1.169 -0.875,0 -1.544,-0.316 -2.008,-0.947 -0.464,-0.631 -0.695,-2.492 -0.695,-5.585 v -28.058 c 0,-3.489 0.151,-5.64 0.457,-6.458 0.304,-0.816 1.014,-1.224 2.128,-1.224 1.138,0 1.867,0.47 2.185,1.41 0.319,0.94 0.478,3.179 0.478,6.717 z m 16.945,-19.747 c 0,-6.041 -0.154,-10.318 -0.461,-12.831 -0.308,-2.513 -1.273,-4.809 -2.894,-6.889 -1.621,-2.08 -3.811,-3.676 -6.571,-4.791 -2.758,-1.113 -5.973,-1.67 -9.643,-1.67 -3.483,0 -6.611,0.526 -9.384,1.578 -2.772,1.052 -5.003,2.63 -6.69,4.735 -1.689,2.104 -2.693,4.394 -3.014,6.87 -0.322,2.476 -0.482,6.808 -0.482,12.998 v 10.286 c 0,6.041 0.153,10.317 0.461,12.83 0.309,2.513 1.274,4.81 2.893,6.889 1.621,2.08 3.812,3.676 6.571,4.791 2.758,1.114 5.974,1.671 9.645,1.671 3.482,0 6.609,-0.526 9.383,-1.578 2.772,-1.053 5.003,-2.631 6.69,-4.735 1.688,-2.104 2.693,-4.395 3.015,-6.871 0.32,-2.476 0.481,-6.807 0.481,-12.997 z m -45.426,-24.908 h -16.946 v 60.102 h 16.946 z m -20.83,60.102 V 223.897 H 126.26 v -48.065 h -16.946 v 48.065 H 99.307 v 12.037 z M 85.13,197.276 c -0.83,6.817 -1.672,15.238 -2.523,25.26 -1.706,-11.508 -2.779,-19.928 -3.22,-25.26 z m 9.007,38.658 9.686,-60.102 H 86.509 l -0.902,10.805 H 79.55 L 78.571,175.832 H 61.057 l 8.596,60.102 z m -36.036,0 V 175.832 H 43.289 l -8.807,27.322 V 175.832 H 20.339 v 60.102 h 14.143 l 9.475,-27.062 v 27.062 z" style="fill:#231f20;fill-opacity:1;fill-rule:nonzero;stroke:none" id="path18"></path><path d="M 368.891,148.284 V 70.592 c 4.347,0 7.025,0.887 8.026,2.661 1.007,1.777 1.508,6.603 1.508,14.483 v 45.885 c 0,5.352 -0.169,8.78 -0.501,10.286 -0.336,1.508 -1.101,2.615 -2.298,3.321 -1.192,0.704 -3.438,1.056 -6.735,1.056 m -30.533,20.17 h 22.808 c 14.723,0 24.679,-0.682 29.871,-2.042 5.188,-1.363 9.133,-3.598 11.836,-6.706 2.703,-3.111 4.393,-6.573 5.068,-10.392 0.677,-3.814 1.014,-11.31 1.014,-22.487 V 85.489 c 0,-10.598 -0.495,-17.677 -1.485,-21.253 -0.991,-3.57 -2.716,-6.367 -5.175,-8.382 -2.464,-2.017 -5.505,-3.429 -9.127,-4.229 -3.62,-0.803 -9.073,-1.202 -16.359,-1.202 h -38.451 z m -49.367,-20.17 v -26.219 c 3.439,0 5.848,0.471 7.227,1.417 1.38,0.948 2.069,4.02 2.069,9.216 v 6.482 c 0,3.74 -0.666,6.192 -1.998,7.356 -1.331,1.166 -3.762,1.748 -7.298,1.748 m -30.529,20.17 h 21.593 c 14.396,0 24.14,-0.56 29.237,-1.678 5.098,-1.116 9.251,-3.971 12.464,-8.562 3.212,-4.588 4.818,-11.909 4.818,-21.965 0,-9.175 -1.136,-15.349 -3.404,-18.505 -2.269,-3.155 -6.734,-5.052 -13.399,-5.681 6.035,-1.509 10.092,-3.526 12.168,-6.053 2.076,-2.531 3.368,-4.855 3.875,-6.966 0.506,-2.119 0.76,-7.942 0.76,-17.474 V 50.423 h -28.287 v 39.24 c 0,6.32 -0.495,10.235 -1.486,11.745 -0.993,1.508 -3.596,2.262 -7.81,2.262 V 50.423 H 258.462 Z M 219.528,92.536 c -1.495,13.387 -3.01,29.924 -4.547,49.607 -3.074,-22.6 -5.014,-39.137 -5.813,-49.607 z m 16.227,75.918 17.45,-118.031 h -31.191 l -1.627,21.217 h -10.923 l -1.768,-21.217 h -31.552 l 15.486,118.031 z m -64.454,0 V 89.56 c 0,-8.947 -0.29,-15.229 -0.869,-18.854 -0.578,-3.621 -2.292,-7.338 -5.14,-11.155 -2.846,-3.818 -6.6,-6.707 -11.256,-8.677 -4.658,-1.967 -10.147,-2.952 -16.471,-2.952 -6.999,0 -13.176,1.167 -18.533,3.499 -5.356,2.332 -9.363,5.371 -12.017,9.112 -2.655,3.744 -4.223,7.697 -4.705,11.852 -0.484,4.155 -0.724,12.891 -0.724,26.216 v 69.853 h 30.531 V 79.957 c 0,-5.153 0.274,-8.445 0.822,-9.876 0.549,-1.437 1.657,-2.152 3.325,-2.152 1.908,0 3.135,0.789 3.684,2.369 0.548,1.578 0.823,5.308 0.823,11.188 v 86.968 z M 90.163,125.05 H 59.632 v 10.69 c 0,6.742 -0.288,10.963 -0.862,12.659 -0.577,1.698 -1.941,2.547 -4.097,2.547 -1.87,0 -3.139,-0.729 -3.81,-2.186 -0.672,-1.457 -1.007,-5.199 -1.007,-11.224 V 80.904 c 0,-5.298 0.335,-8.783 1.01,-10.462 0.672,-1.672 2.016,-2.513 4.034,-2.513 2.21,0 3.711,0.952 4.504,2.851 0.793,1.902 1.189,5.602 1.189,11.109 v 14.034 h -6.089 v 17.912 H 90.163 V 50.423 H 70.917 l -2.831,8.456 c -2.075,-3.644 -4.691,-6.383 -7.851,-8.212 -3.158,-1.831 -6.882,-2.745 -11.175,-2.745 -5.114,0 -9.9,1.252 -14.362,3.752 -4.461,2.506 -7.849,5.605 -10.164,9.303 -2.315,3.692 -3.762,7.572 -4.341,11.628 -0.578,4.06 -0.868,10.152 -0.868,18.271 v 35.08 c 0,11.28 0.604,19.471 1.811,24.579 1.207,5.104 4.671,9.782 10.394,14.038 5.721,4.254 13.122,6.381 22.199,6.381 8.932,0 16.345,-1.846 22.236,-5.537 5.891,-3.692 9.73,-8.077 11.516,-13.151 1.788,-5.078 2.682,-12.45 2.682,-22.117 z" style="fill:#231f20;fill-opacity:1;fill-rule:nonzero;stroke:none" id="path20"></path><path d="m 314.861,238.025 v -48.064 h 10.275 v -12.037 h -27.222 v 60.101 z m -38.557,-38.657 c -0.827,6.817 -1.67,15.237 -2.522,25.26 -1.706,-11.508 -2.778,-19.928 -3.221,-25.26 z m 9.009,38.657 9.685,-60.101 h -17.313 l -0.902,10.805 h -6.058 l -0.98,-10.805 h -17.513 l 8.596,60.101 z m -36.038,0 v -60.101 h -14.811 l -8.808,27.322 v -27.322 h -14.144 v 60.101 h 14.144 l 9.475,-27.062 v 27.062 z m -61.047,-15.446 c 0,2.795 -0.165,4.583 -0.497,5.362 -0.331,0.779 -1.013,1.169 -2.048,1.169 -0.874,0 -1.544,-0.315 -2.007,-0.946 -0.465,-0.631 -0.696,-2.493 -0.696,-5.585 v -28.058 c 0,-3.489 0.152,-5.641 0.457,-6.458 0.305,-0.816 1.014,-1.224 2.128,-1.224 1.139,0 1.868,0.47 2.185,1.41 0.319,0.94 0.478,3.179 0.478,6.717 z m 16.946,-19.748 c 0,-6.041 -0.154,-10.317 -0.462,-12.831 -0.308,-2.512 -1.273,-4.809 -2.894,-6.888 -1.62,-2.08 -3.811,-3.676 -6.57,-4.791 -2.759,-1.113 -5.974,-1.671 -9.644,-1.671 -3.483,0 -6.611,0.527 -9.384,1.579 -2.772,1.052 -5.003,2.63 -6.69,4.734 -1.688,2.104 -2.693,4.395 -3.014,6.87 -0.322,2.477 -0.481,6.809 -0.481,12.998 v 10.287 c 0,6.04 0.153,10.317 0.461,12.83 0.309,2.513 1.273,4.809 2.893,6.889 1.621,2.08 3.812,3.676 6.57,4.79 2.759,1.115 5.974,1.672 9.645,1.672 3.482,0 6.61,-0.527 9.383,-1.578 2.772,-1.053 5.003,-2.631 6.691,-4.736 1.687,-2.104 2.692,-4.394 3.014,-6.87 0.321,-2.476 0.482,-6.808 0.482,-12.997 z m -45.426,-24.907 h -16.946 v 60.102 h 16.946 z m -20.831,60.101 v -12.037 h -10.008 v -48.064 h -16.945 v 48.064 h -10.007 v 12.037 z M 87.78,199.368 c -0.83,6.817 -1.672,15.237 -2.524,25.26 -1.706,-11.508 -2.779,-19.928 -3.22,-25.26 z m 9.007,38.657 9.685,-60.101 H 89.159 l -0.902,10.805 H 82.2 L 81.22,177.924 H 63.707 l 8.595,60.101 z m -36.037,0 V 177.924 H 45.938 l -8.806,27.322 V 177.924 H 22.988 v 60.101 h 14.144 l 9.474,-27.062 v 27.062 z" style="fill:#ed1c24;fill-opacity:1;fill-rule:nonzero;stroke:none" id="path22"></path><path d="M 371.527,150.376 V 72.684 c 4.348,0 7.026,0.887 8.027,2.662 1.007,1.775 1.508,6.603 1.508,14.481 v 45.885 c 0,5.351 -0.169,8.78 -0.501,10.287 -0.336,1.508 -1.101,2.615 -2.298,3.32 -1.194,0.704 -3.438,1.057 -6.736,1.057 m -30.532,20.169 h 22.808 c 14.722,0 24.677,-0.681 29.871,-2.042 5.187,-1.362 9.133,-3.597 11.836,-6.706 2.703,-3.11 4.392,-6.572 5.068,-10.391 0.677,-3.814 1.014,-11.309 1.014,-22.488 V 87.581 c 0,-10.598 -0.495,-17.679 -1.486,-21.254 -0.99,-3.569 -2.715,-6.365 -5.174,-8.383 -2.464,-2.016 -5.505,-3.426 -9.128,-4.228 -3.62,-0.801 -9.073,-1.202 -16.359,-1.202 h -38.45 z m -49.367,-20.169 v -26.22 c 3.437,0 5.847,0.471 7.226,1.419 1.38,0.947 2.07,4.019 2.07,9.214 v 6.482 c 0,3.741 -0.667,6.192 -1.999,7.356 -1.33,1.166 -3.761,1.749 -7.297,1.749 m -30.529,20.169 h 21.592 c 14.396,0 24.141,-0.559 29.238,-1.677 5.096,-1.116 9.25,-3.971 12.464,-8.562 3.211,-4.588 4.818,-11.91 4.818,-21.964 0,-9.177 -1.136,-15.349 -3.405,-18.505 -2.268,-3.157 -6.734,-5.054 -13.398,-5.683 6.034,-1.508 10.092,-3.524 12.168,-6.052 2.074,-2.531 3.367,-4.854 3.874,-6.967 0.507,-2.119 0.761,-7.942 0.761,-17.473 V 52.514 h -28.287 v 39.241 c 0,6.32 -0.495,10.236 -1.487,11.745 -0.994,1.507 -3.596,2.261 -7.809,2.261 V 52.514 H 261.099 Z M 222.164,94.628 c -1.495,13.387 -3.01,29.924 -4.546,49.607 -3.075,-22.601 -5.007,-39.137 -5.801,-49.607 z m 16.228,75.917 17.45,-118.031 H 224.65 l -1.628,21.218 h -10.911 l -1.765,-21.218 h -31.553 l 15.487,118.031 z m -64.441,0 V 91.65 c 0,-8.945 -0.29,-15.227 -0.869,-18.851 -0.579,-3.623 -2.293,-7.338 -5.14,-11.157 -2.847,-3.816 -6.6,-6.707 -11.257,-8.677 -4.657,-1.967 -10.147,-2.952 -16.47,-2.952 -6.999,0 -13.176,1.168 -18.534,3.501 -5.355,2.331 -9.362,5.371 -12.016,9.111 -2.655,3.744 -4.224,7.696 -4.706,11.852 -0.484,4.154 -0.723,12.892 -0.723,26.214 v 69.854 h 30.531 V 82.05 c 0,-5.155 0.273,-8.446 0.821,-9.878 0.549,-1.436 1.657,-2.151 3.326,-2.151 1.907,0 3.135,0.789 3.683,2.369 0.549,1.579 0.823,5.307 0.823,11.189 v 86.966 z M 92.812,127.141 h -30.53 v 10.692 c 0,6.742 -0.289,10.961 -0.863,12.658 -0.577,1.697 -1.94,2.547 -4.097,2.547 -1.87,0 -3.138,-0.73 -3.81,-2.186 -0.672,-1.458 -1.007,-5.2 -1.007,-11.225 V 82.995 c 0,-5.298 0.335,-8.781 1.01,-10.46 0.672,-1.675 2.017,-2.514 4.034,-2.514 2.211,0 3.712,0.951 4.505,2.851 0.792,1.902 1.189,5.603 1.189,11.108 v 14.036 h -6.09 v 17.911 H 92.812 V 52.514 H 73.567 l -2.832,8.457 c -2.074,-3.643 -4.691,-6.383 -7.851,-8.213 -3.158,-1.829 -6.882,-2.745 -11.175,-2.745 -5.113,0 -9.9,1.253 -14.361,3.754 -4.461,2.505 -7.849,5.604 -10.164,9.3 -2.316,3.693 -3.763,7.573 -4.341,11.629 -0.578,4.06 -0.868,10.152 -0.868,18.273 v 35.08 c 0,11.28 0.603,19.47 1.811,24.577 1.206,5.104 4.671,9.783 10.393,14.039 5.722,4.253 13.122,6.381 22.199,6.381 8.933,0 16.346,-1.846 22.236,-5.538 5.891,-3.692 9.731,-8.076 11.517,-13.151 1.787,-5.078 2.681,-12.449 2.681,-22.117 z" style="fill:#ed1c24;fill-opacity:1;fill-rule:nonzero;stroke:none" id="path24"></path><path d="m 372.916,224.193 c 4.425,-0.813 6.574,-4.414 7.318,-5.994 l 0.182,-2.014 c 0,0 12.874,9.266 18.962,8.008 5.069,-1.048 6.786,-6.75 6.786,-6.75 l -0.899,11.44 c 0,0 -1.697,7.321 -9.781,7.321 -4.921,0 -14.31,-6.565 -15.907,-7.707 l -0.034,0.386 c 0,0 -1.91,7.321 -11.009,7.321 -6.064,0 -18.194,-7.893 -18.194,-7.893 l 1.235,-12.126 c 0,0 14.49,9.266 21.341,8.008 m 10.549,-16.401 -0.034,0.386 c 0,0 -1.91,7.322 -11.008,7.322 -6.066,0 -18.194,-7.894 -18.194,-7.894 l 1.234,-12.125 c 0,0 14.49,9.266 21.342,8.007 4.424,-0.813 6.573,-4.414 7.317,-5.994 l 0.183,-2.013 c 0,0 12.873,9.266 18.961,8.007 5.069,-1.048 6.786,-6.749 6.786,-6.749 l -0.9,11.439 c 0,0 -1.696,7.322 -9.78,7.322 -4.92,0 -14.309,-6.566 -15.907,-7.708 m 29.577,-20.089 c 0,0 -1.696,7.321 -9.78,7.321 -4.921,0 -14.311,-6.566 -15.908,-7.708 l -0.034,0.387 c 0,0 -1.91,7.321 -11.008,7.321 -5.564,0 -16.206,-6.627 -17.929,-7.724 l -0.037,0.403 c 0,0 -1.946,7.321 -11.211,7.321 -6.178,0 -18.531,-7.894 -18.531,-7.894 l 1.258,-12.125 c 0,0 14.757,9.266 21.735,8.008 4.776,-0.862 6.953,-4.861 7.578,-6.26 l 0.178,-1.748 c 0,0 14.49,9.266 21.34,8.008 4.425,-0.813 6.575,-4.414 7.319,-5.994 l 0.181,-2.014 c 0,0 12.874,9.266 18.962,8.008 5.07,-1.049 6.786,-6.75 6.786,-6.75 z" style="fill:#231f20;fill-opacity:1;fill-rule:nonzero;stroke:none" id="path26"></path><path d="m 349.882,230.599 c 0,0 -4.463,4.118 -10.41,4.118 -5.949,0 -17.959,-8.122 -17.959,-8.122 l 4.804,-32.143 c 0,0 12.599,7.691 17.044,8.579 6.292,1.258 10.982,-3.661 10.982,-3.661 z" style="fill:#231f20;fill-opacity:1;fill-rule:nonzero;stroke:none" id="path28"></path><path d="m 373.055,225.866 c 4.424,-0.813 6.574,-4.414 7.318,-5.994 l 0.182,-2.014 c 0,0 12.874,9.267 18.962,8.008 5.069,-1.048 6.786,-6.749 6.786,-6.749 l -0.9,11.439 c 0,0 -1.696,7.321 -9.78,7.321 -4.921,0 -14.31,-6.565 -15.907,-7.707 l -0.034,0.386 c 0,0 -1.911,7.321 -11.009,7.321 -6.065,0 -18.194,-7.893 -18.194,-7.893 l 1.235,-12.126 c 0,0 14.49,9.267 21.341,8.008 m 10.549,-16.401 -0.035,0.387 c 0,0 -1.909,7.321 -11.007,7.321 -6.066,0 -18.195,-7.893 -18.195,-7.893 l 1.236,-12.126 c 0,0 14.489,9.266 21.34,8.008 4.424,-0.813 6.574,-4.414 7.318,-5.995 l 0.182,-2.013 c 0,0 12.873,9.266 18.961,8.008 5.07,-1.049 6.786,-6.749 6.786,-6.749 l -0.899,11.439 c 0,0 -1.696,7.321 -9.779,7.321 -4.921,0 -14.311,-6.566 -15.908,-7.708 m 29.577,-20.089 c 0,0 -1.697,7.321 -9.781,7.321 -4.92,0 -14.309,-6.565 -15.907,-7.707 l -0.034,0.386 c 0,0 -1.91,7.321 -11.009,7.321 -5.563,0 -16.205,-6.627 -17.929,-7.724 l -0.037,0.403 c 0,0 -1.945,7.321 -11.211,7.321 -6.177,0 -18.53,-7.893 -18.53,-7.893 l 1.259,-12.126 c 0,0 14.756,9.266 21.733,8.008 4.777,-0.861 6.953,-4.86 7.578,-6.26 l 0.178,-1.748 c 0,0 14.49,9.266 21.342,8.008 4.424,-0.813 6.573,-4.414 7.317,-5.994 l 0.183,-2.014 c 0,0 12.873,9.266 18.961,8.008 5.069,-1.048 6.786,-6.749 6.786,-6.749 z" style="fill:#ed1c24;fill-opacity:1;fill-rule:nonzero;stroke:none" id="path30"></path><path d="m 350.021,232.272 c 0,0 -4.463,4.118 -10.411,4.118 -5.948,0 -17.959,-8.121 -17.959,-8.121 l 4.805,-32.144 c 0,0 12.599,7.691 17.044,8.58 6.292,1.257 10.981,-3.662 10.981,-3.662 z" style="fill:#0054a6;fill-opacity:1;fill-rule:nonzero;stroke:none" id="path32"></path><path d="m 326.646,227.449 0.069,2.749 1.152,-2.497 2.635,0.784 -2.019,-1.868 1.561,-2.265 -2.4,1.342 -1.672,-2.182 0.535,2.697 -2.593,0.916 z" style="fill:#ffffff;fill-opacity:1;fill-rule:nonzero;stroke:none" id="path34"></path><path d="m 335.121,226.346 0.069,2.749 1.153,-2.497 2.635,0.783 -2.019,-1.867 1.561,-2.265 -2.401,1.342 -1.672,-2.183 0.535,2.698 -2.593,0.915 z" style="fill:#ffffff;fill-opacity:1;fill-rule:nonzero;stroke:none" id="path36"></path><path d="m 341.505,232.44 0.069,2.749 1.153,-2.497 2.635,0.784 -2.018,-1.868 1.559,-2.265 -2.399,1.343 -1.672,-2.183 0.534,2.698 -2.593,0.915 z" style="fill:#ffffff;fill-opacity:1;fill-rule:nonzero;stroke:none" id="path38"></path><path d="m 328.213,220.658 0.069,2.749 1.153,-2.497 2.634,0.783 -2.018,-1.867 1.56,-2.265 -2.4,1.342 -1.672,-2.182 0.535,2.697 -2.594,0.916 z" style="fill:#ffffff;fill-opacity:1;fill-rule:nonzero;stroke:none" id="path40"></path><path d="m 344.002,224.837 0.069,2.749 1.153,-2.497 2.634,0.784 -2.018,-1.868 1.56,-2.265 -2.4,1.343 -1.672,-2.183 0.535,2.698 -2.593,0.915 z" style="fill:#ffffff;fill-opacity:1;fill-rule:nonzero;stroke:none" id="path42"></path><path d="m 337.152,219.032 0.07,2.749 1.152,-2.497 2.635,0.784 -2.019,-1.868 1.561,-2.265 -2.401,1.342 -1.671,-2.182 0.535,2.697 -2.594,0.916 z" style="fill:#ffffff;fill-opacity:1;fill-rule:nonzero;stroke:none" id="path44"></path><path d="m 330.65,213.924 0.07,2.749 1.152,-2.497 2.635,0.784 -2.019,-1.868 1.561,-2.265 -2.4,1.343 -1.672,-2.183 0.535,2.698 -2.593,0.916 z" style="fill:#ffffff;fill-opacity:1;fill-rule:nonzero;stroke:none" id="path46"></path><path d="m 345.626,217.697 0.069,2.75 1.153,-2.497 2.634,0.783 -2.018,-1.868 1.56,-2.265 -2.399,1.343 -1.672,-2.183 0.534,2.698 -2.592,0.916 z" style="fill:#ffffff;fill-opacity:1;fill-rule:nonzero;stroke:none" id="path48"></path><path d="m 339.357,211.719 0.07,2.749 1.152,-2.497 2.635,0.784 -2.019,-1.868 1.561,-2.265 -2.401,1.343 -1.671,-2.183 0.535,2.697 -2.594,0.916 z" style="fill:#ffffff;fill-opacity:1;fill-rule:nonzero;stroke:none" id="path50"></path><path d="m 331.869,206.205 0.069,2.749 1.153,-2.497 2.636,0.783 -2.02,-1.867 1.561,-2.266 -2.4,1.343 -1.672,-2.183 0.534,2.698 -2.592,0.915 z" style="fill:#ffffff;fill-opacity:1;fill-rule:nonzero;stroke:none" id="path52"></path><path d="m 347.6,210.384 0.069,2.749 1.152,-2.497 2.636,0.783 -2.019,-1.867 1.56,-2.265 -2.399,1.342 -1.672,-2.183 0.534,2.698 -2.593,0.916 z" style="fill:#ffffff;fill-opacity:1;fill-rule:nonzero;stroke:none" id="path54"></path></g></g></g></svg>